<svg width="82" height="43" viewBox="0 0 82 43" fill="none" xmlns="http://www.w3.org/2000/svg">
<mask id="mask0_2594_4164" style="mask-type:alpha" maskUnits="userSpaceOnUse" x="2" y="0" width="79" height="43">
<path d="M2.5343 4.70568C1.68886 2.42483 3.37609 0 5.80859 0H63.8594C65.3198 0 66.6278 0.913668 67.1354 2.28309C72.1257 15.7458 75.3525 24.4512 80.139 37.3641C80.9844 39.645 79.2981 42.0723 76.8656 42.0723H18.8148C17.3544 42.0723 16.0482 41.1635 15.5406 39.794L2.5343 4.70568Z" fill="black"/>
</mask>
<g mask="url(#mask0_2594_4164)">
<path d="M2.5343 4.70568C1.68886 2.42483 3.37609 0 5.80859 0H63.8594C65.3198 0 66.6278 0.913668 67.1354 2.28309C72.1257 15.7458 75.3525 24.4512 80.139 37.3641C80.9844 39.645 79.2981 42.0723 76.8656 42.0723H18.8148C17.3544 42.0723 16.0482 41.1635 15.5406 39.794L2.5343 4.70568Z" fill="black" fill-opacity="0.8"/>
<path fill-rule="evenodd" clip-rule="evenodd" d="M51.145 37.6795C47.2527 46.7713 37.2957 51.6721 27.7754 49.1875L29.7484 43.3976L26.8361 42.392L24.8632 48.1819C15.8324 44.2609 10.963 34.2407 13.4341 24.6582L19.1829 26.6432L20.1818 23.7116L14.433 21.7265C18.3253 12.6347 28.2793 7.73299 37.7996 10.2176L35.8267 16.0075L38.7389 17.0131L40.7119 11.2231C49.7427 15.1442 54.615 25.1654 52.1439 34.7479L46.3922 32.7619L45.3932 35.6935L51.145 37.6795L51.145 37.6795ZM55.0562 35.7535C58.066 24.5516 52.3462 12.7765 41.7108 8.29155L42.7348 5.28664L39.8225 4.28106L38.7986 7.28597C27.6706 4.25613 15.9751 10.0178 11.5207 20.7209L8.53278 19.6892L7.53382 22.6208L10.5218 23.6526C7.51195 34.8544 13.2317 46.6296 23.8642 51.1135L22.8403 54.1184L25.7525 55.124L26.7765 52.1191C37.9074 55.1499 49.6029 49.3882 54.0572 38.6851L57.0423 39.7159L58.0412 36.7842L55.0562 35.7535L55.0562 35.7535ZM30.2913 37.0319C26.2782 35.6462 24.1315 31.2287 25.508 27.1889C26.8846 23.1492 31.273 20.9882 35.2861 22.3739C39.2992 23.7596 41.4459 28.1772 40.0694 32.2169C38.6928 36.2567 34.3044 38.4176 30.2913 37.0319ZM36.285 19.4423C30.6644 17.5015 24.5238 20.5254 22.5958 26.1834C20.6678 31.8414 23.6717 38.0228 29.2924 39.9636C34.913 41.9044 41.0536 38.8805 42.9816 33.2225C44.9096 27.5645 41.9057 21.3831 36.285 19.4423Z" fill="white" fill-opacity="0.1"/>
</g>
</svg>
