<svg width="19" height="20" viewBox="0 0 19 20" fill="none" xmlns="http://www.w3.org/2000/svg">
<path d="M8.67595 13.8893C8.49899 13.6914 8.34317 13.5568 8.21601 13.4991C8.14233 13.4656 8.07879 13.4499 7.99829 13.4492L7.95131 13.4519L7.94285 13.4525C7.59604 13.4856 7.30656 13.5188 7.08426 13.5621C6.86097 13.6048 6.70875 13.6602 6.63148 13.7094C6.57865 13.7426 6.55751 13.7668 6.53956 13.7947C6.5174 13.8312 6.49262 13.8948 6.49201 14.0356C6.49168 14.3608 6.45648 14.7434 6.3541 15.1188C6.25012 15.4915 6.0842 15.8689 5.75952 16.1472C5.54503 16.3312 5.24843 16.4503 4.92829 16.4481C4.71445 16.4481 4.44488 16.4481 4.14857 16.4481L4.10421 16.7913C4.08271 16.957 3.93179 17.0738 3.76751 17.0522C3.60289 17.0305 3.48682 16.8786 3.50836 16.7129L3.54259 16.4481C3.25998 16.4481 2.97053 16.4481 2.69087 16.4481L2.64131 16.8317C2.6198 16.997 2.46885 17.1139 2.30457 17.0922C2.13996 17.0705 2.02392 16.9189 2.04543 16.7536L2.08517 16.448C1.80514 16.448 1.5545 16.448 1.35991 16.448C1.33612 16.4484 1.31196 16.4412 1.28784 16.4392L1.28754 16.4418L1.25528 16.4385L1.25234 16.4461C1.24257 16.4795 1.23214 16.535 1.22724 16.6101C1.21191 16.8316 1.15912 17.2792 1.10371 17.7556C1.04831 18.2285 0.990583 18.7237 0.969075 18.9839C0.963844 19.0462 0.961228 19.0912 0.960938 19.1108C0.96646 19.1194 0.983099 19.1397 1.02415 19.1653C1.10989 19.2211 1.29993 19.2874 1.59689 19.2861C1.62785 19.2867 1.72565 19.2795 1.85215 19.264C1.98025 19.2486 2.14257 19.2257 2.32967 19.1968C2.70489 19.1384 3.1798 19.057 3.69746 18.9644C4.73407 18.78 5.94208 18.5523 6.89036 18.3837C7.52469 18.2708 8.03552 18.1842 8.32889 18.1514C8.53099 18.1277 8.69074 18.0664 8.83867 17.9564C8.9857 17.8458 9.12553 17.6788 9.25073 17.4209C9.48869 16.9353 9.64938 16.1235 9.66471 14.9533C9.23921 14.5859 8.93804 14.1774 8.67595 13.8893Z" fill="white"/>
<path d="M18.2345 5.96298C17.9571 4.2754 17.1041 2.9405 15.8836 2.00925C14.6626 1.07931 13.0666 0.560547 11.3177 0.560547C10.2101 0.560547 9.04212 0.768894 7.87316 1.21192C5.30288 2.18911 3.8774 3.80355 3.05108 5.36745C2.23423 6.91753 2.02788 8.41747 1.96953 9.13972C1.97018 9.16861 1.97117 9.21648 1.97117 9.28345C1.97117 9.50002 1.96172 9.8905 1.9001 10.3217C1.84012 10.7272 1.73909 11.1656 1.52656 11.5515C1.54872 11.5837 1.58814 11.6303 1.64456 11.6834C1.77168 11.8042 1.96237 11.9439 2.14035 12.0775C2.25999 12.1684 2.37312 12.254 2.47742 12.36C2.5361 12.423 2.59837 12.4886 2.65152 12.6146L2.65086 12.6133C2.68116 12.6888 2.69163 12.7623 2.69163 12.8279C2.68966 12.9772 2.64534 13.0809 2.60102 13.1692C2.55506 13.2567 2.50191 13.3306 2.44458 13.4022C2.33014 13.5432 2.19685 13.6726 2.06642 13.79C1.91191 13.9285 1.76296 14.0473 1.66516 14.1228C1.66254 14.13 1.66156 14.1332 1.65895 14.1411C1.63028 14.231 1.59148 14.3577 1.55304 14.5024C1.47544 14.7895 1.40278 15.156 1.40438 15.4025C1.4034 15.476 1.41121 15.5344 1.41938 15.5731C1.64169 15.5731 1.92434 15.5731 2.23855 15.5731L2.28517 15.2142C2.30667 15.0485 2.45759 14.9316 2.62191 14.9533C2.78652 14.975 2.90256 15.1269 2.88105 15.2923L2.84454 15.5732C3.1278 15.5732 3.41728 15.5732 3.69633 15.5732L3.74814 15.1729C3.76968 15.0075 3.92027 14.8907 4.08488 14.9123C4.24953 14.934 4.36553 15.0856 4.34406 15.2513L4.30232 15.5732C4.53668 15.5732 4.74987 15.5732 4.92523 15.5732C5.05104 15.5709 5.11887 15.5404 5.19971 15.4761C5.27825 15.4108 5.36007 15.2959 5.42655 15.1404C5.5625 14.8313 5.62281 14.3788 5.62121 14.0346C5.62055 13.7862 5.67007 13.5427 5.79854 13.334C5.92598 13.1247 6.12056 12.977 6.3263 12.8825C6.73897 12.6955 7.22075 12.6463 7.84926 12.5829V12.5826C7.85086 12.5826 7.85216 12.5826 7.8538 12.5823C7.85511 12.5823 7.85641 12.582 7.85772 12.582C7.90764 12.577 7.95421 12.5747 7.9953 12.5747C8.31345 12.5731 8.59933 12.6899 8.82294 12.8481C9.04884 13.0065 9.22907 13.2015 9.40284 13.3997C9.74703 13.7987 10.0697 14.2174 10.4984 14.497C10.7846 14.6837 11.1135 14.8179 11.5624 14.8562L11.5611 14.8559C11.7837 14.8736 12.004 14.8835 12.2215 14.8835C13.9054 14.8822 15.4453 14.3381 16.5664 13.2401C17.6857 12.1409 18.4172 10.4723 18.4198 8.11532C18.4197 7.45177 18.3607 6.73446 18.2345 5.96298ZM5.8163 11.2805C5.18488 12.1277 4.15122 11.8192 3.85361 10.6816C3.55599 9.54394 2.96145 9.30473 3.13976 8.46633C3.25122 7.94263 3.955 7.51935 4.68618 7.8678C5.8163 8.40665 6.70849 10.0831 5.8163 11.2805Z" fill="white"/>
</svg>
